<svg xmlns="http://www.w3.org/2000/svg" width="32" height="32" fill="#000000" viewBox="0 0 256 256"><path d="M 128,224 A 72.08,72.08 0 0 1 56,152 C 56,124.31 65.72,93.85 82.66,68.44 97.19,46.64 115.41,32 128,32 c 9.5,0 22.2,8.33 34.1,21.78 L 122,98.67 a 8,8 0 0 0 4,13.09 l 24.6,6.15 -6.5,32.52 a 8,8 0 0 0 6.27,9.41 7.77,7.77 0 0 0 1.63,0.16 8,8 0 0 0 7.83,-6.43 l 8,-40 a 8,8 0 0 0 -5.9,-9.33 L 142.77,99.45 172.1,66.6 c 0.42,0.61 0.83,1.22 1.24,1.84 C 190.28,93.85 200,124.31 200,152 a 72.08,72.08 0 0 1 -72,72 z"></path></svg>
